<svg width="26" height="27" viewBox="0 0 26 27" fill="none" xmlns="http://www.w3.org/2000/svg">
<path d="M2.32917 4.85778C2.16522 4.85799 2.00127 4.85911 1.83733 4.86115C1.67483 4.86678 1.50908 4.87578 1.34767 4.90615C1.10372 4.94619 0.872414 5.0458 0.672776 5.19678C0.473138 5.34777 0.310874 5.54583 0.199333 5.77465C0.1235 5.9299 0.0758333 6.0874 0.0476667 6.2584C0.0173333 6.4249 0.00758333 6.5959 0.00433333 6.76465C0.00211554 6.84301 0.000671024 6.92139 0 6.99978L0 20.0014C0 20.0802 0.00216667 20.1567 0.00325 20.2343C0.00758333 20.403 0.0173333 20.5752 0.0465833 20.7428C0.0758333 20.9115 0.124583 21.0702 0.200417 21.2254C0.349803 21.5308 0.58881 21.779 0.882917 21.9342C1.03242 22.0129 1.18408 22.0635 1.34875 22.0939C1.50908 22.1243 1.67375 22.1344 1.83625 22.1389L2.06158 22.1423H23.9384L24.1627 22.1389C24.3252 22.1344 24.4909 22.1243 24.6523 22.0939C24.8148 22.0635 24.9676 22.014 25.116 21.9353C25.4109 21.7803 25.6503 21.5316 25.7996 21.2254C25.8754 21.0702 25.9242 20.9127 25.9523 20.7417C25.9816 20.5752 25.9913 20.4042 25.9957 20.2354C25.9978 20.1567 25.9989 20.0802 25.9989 20.0014L26 19.7247V6.99865C26 6.9199 25.9978 6.8434 25.9957 6.76578C25.9936 6.59538 25.9791 6.4254 25.9523 6.25728C25.9005 5.91849 25.7469 5.60539 25.5134 5.36273C25.2799 5.12007 24.9785 4.96026 24.6523 4.90615C24.4904 4.87843 24.3267 4.86339 24.1627 4.86115C23.9991 4.85635 23.8355 4.85522 23.6719 4.85778H2.32917ZM2.32917 5.43378H23.933C24.0045 5.43378 24.0749 5.43603 24.1464 5.43715C24.271 5.44165 24.4172 5.4484 24.5527 5.47315C24.6707 5.49565 24.7693 5.5294 24.8636 5.5789C25.0536 5.67908 25.208 5.83944 25.3045 6.03678C25.3541 6.13876 25.3885 6.24802 25.4063 6.36078C25.4302 6.49915 25.4367 6.65103 25.4399 6.78153C25.4421 6.85465 25.4432 6.92778 25.4432 7.00315V19.9992C25.4432 20.0723 25.4432 20.1454 25.4399 20.2197C25.4367 20.349 25.4302 20.5009 25.4053 20.6415C25.3818 20.8071 25.3204 20.9643 25.2261 21.1C25.1318 21.2357 25.0075 21.3459 24.8636 21.4212C24.766 21.4724 24.6616 21.5081 24.5538 21.5269C24.4201 21.549 24.285 21.561 24.1497 21.5629L23.933 21.5663H2.06483C1.99333 21.5663 1.92075 21.564 1.8525 21.5629C1.71643 21.5611 1.58066 21.549 1.44625 21.5269C1.32817 21.5044 1.22958 21.4707 1.13425 21.4212C0.944214 21.3214 0.790041 21.1609 0.694417 20.9633C0.644917 20.8612 0.610584 20.752 0.592583 20.6393C0.571068 20.5005 0.559481 20.3602 0.557917 20.2197C0.556464 20.1458 0.555741 20.0719 0.55575 19.998V7.00203C0.55575 6.9289 0.55575 6.85465 0.557917 6.7804C0.56225 6.65215 0.56875 6.5014 0.592583 6.35853C0.61425 6.23703 0.64675 6.13465 0.694417 6.03565C0.790943 5.83864 0.945377 5.67866 1.13533 5.5789C1.23341 5.52798 1.33817 5.49235 1.44625 5.47315C1.58167 5.4484 1.72792 5.44053 1.8525 5.43715C1.92292 5.4349 1.99442 5.4349 2.06483 5.43378H2.32917ZM7.43167 9.59628C7.10667 9.61428 6.708 9.82015 6.47833 10.1093C6.27142 10.3568 6.08833 10.7618 6.136 11.142C6.50217 11.1758 6.86725 10.9519 7.098 10.6718C7.32008 10.3815 7.47175 9.9934 7.43167 9.5974V9.59628ZM9.82258 10.0688V16.2484H10.7456V14.1368H12.0239C13.1918 14.1368 14.0118 13.3054 14.0118 12.0983C14.0118 10.8945 13.208 10.0677 12.0532 10.0677L9.82258 10.0688ZM10.7456 10.8777H11.8094C12.61 10.8777 13.0672 11.3232 13.0672 12.1028C13.0672 12.8813 12.61 13.3313 11.8062 13.3313H10.7456V10.8777ZM7.32875 11.2152C6.84125 11.2264 6.42958 11.5302 6.19125 11.5302C5.93667 11.5302 5.54883 11.2332 5.1285 11.241C4.85508 11.2481 4.5882 11.3294 4.35443 11.4769C4.12066 11.6243 3.92813 11.8327 3.796 12.0814C3.22508 13.1029 3.64542 14.6183 4.20117 15.4508C4.47092 15.8625 4.79592 16.3159 5.22383 16.299C5.62792 16.2833 5.78717 16.0268 6.27792 16.0268C6.76975 16.0268 6.91275 16.299 7.33958 16.2912C7.78375 16.2833 8.06217 15.8794 8.33083 15.4665C8.64067 14.9974 8.76742 14.544 8.775 14.5204C8.76742 14.5114 7.91917 14.1739 7.91158 13.1603C7.90292 12.312 8.57783 11.9082 8.60925 11.8834C8.22792 11.2984 7.63425 11.2332 7.42842 11.2163C7.39524 11.2141 7.36199 11.2145 7.32875 11.2152ZM16.2164 11.6618C15.1439 11.6618 14.4766 12.2614 14.4268 13.0748H15.2685C15.3465 12.672 15.6683 12.4155 16.1839 12.4155C16.7278 12.4155 17.0538 12.7148 17.0538 13.2154V13.563L15.8654 13.635C14.8352 13.6958 14.2534 14.1795 14.2534 14.967C14.2534 15.777 14.8471 16.3249 15.6964 16.3249C16.2663 16.3249 16.8144 16.0088 17.0658 15.507H17.0863V16.2484H17.94V13.1434C17.94 12.24 17.2683 11.6618 16.2164 11.6618ZM18.3181 11.7428L19.8846 16.2529C19.8846 16.2563 19.8055 16.5229 19.8055 16.5308C19.6701 16.992 19.448 17.1732 19.0352 17.1732C18.9605 17.1732 18.8121 17.1732 18.746 17.1563V17.9055C18.811 17.9179 19.0352 17.9269 19.1089 17.9269C20.0081 17.9269 20.4371 17.5759 20.8076 16.4835L22.4326 11.7428H21.4923L20.3959 15.4092H20.3797L19.2823 11.7417L18.3181 11.7428ZM17.0538 14.2054V14.5609C17.0538 15.147 16.5663 15.5925 15.9445 15.5925C15.4657 15.5925 15.1526 15.336 15.1526 14.9412C15.1526 14.5564 15.4537 14.3112 15.9857 14.274L17.0538 14.2054Z" fill="black"/>
</svg>
