<svg width="26" height="27" viewBox="0 0 26 27" fill="none" xmlns="http://www.w3.org/2000/svg">
<path d="M23.2144 4.82153H2.78585C1.76018 4.82153 0.928711 5.68498 0.928711 6.7501V20.2501C0.928711 21.3152 1.76018 22.1787 2.78585 22.1787H23.2144C24.2401 22.1787 25.0716 21.3152 25.0716 20.2501V6.7501C25.0716 5.68498 24.2401 4.82153 23.2144 4.82153Z" stroke="#D3D4A9" stroke-linecap="round" stroke-linejoin="round"/>
<path d="M13.0006 16.3929C14.5391 16.3929 15.7863 15.0977 15.7863 13.5C15.7863 11.9024 14.5391 10.6072 13.0006 10.6072C11.4621 10.6072 10.2148 11.9024 10.2148 13.5C10.2148 15.0977 11.4621 16.3929 13.0006 16.3929Z" stroke="#D3D4A9" stroke-linecap="round" stroke-linejoin="round"/>
<path d="M5.57129 9.64307H6.49986M19.4999 17.3574H20.4284" stroke="#D3D4A9" stroke-linecap="round" stroke-linejoin="round"/>
</svg>
