<svg width="164" height="165" viewBox="0 0 164 165" fill="none" xmlns="http://www.w3.org/2000/svg">
<path d="M82 0C36.7824 0 0 37.0066 0 82.5C0 127.993 36.7824 165 82 165C127.218 165 164 127.993 164 82.5C164 66.1435 159.224 50.8965 151.034 38.0624L146.153 43.8632C152.909 55.1764 156.87 68.3674 156.87 82.5C156.87 124.033 123.282 157.826 82 157.826C40.7183 157.826 7.13043 124.033 7.13043 82.5C7.13043 40.9666 40.7183 7.17391 82 7.17391C101.405 7.17391 119.057 14.7057 132.373 26.9372L137.038 21.3956C122.474 8.10596 103.16 0 82 0ZM147.016 20.639L78.1284 102.424L49.1332 75.214L44.2728 80.4613L78.7342 112.8L152.462 25.2768L147.016 20.639Z" fill="#9CCC44"/>
</svg>
