<svg width="26" height="28" viewBox="0 0 26 28" fill="none" xmlns="http://www.w3.org/2000/svg">
<path d="M4.0625 5.27832C2.72594 5.27832 1.625 6.4293 1.625 7.82662V19.7187C1.625 21.116 2.72594 22.267 4.0625 22.267H21.9375C23.2741 22.267 24.375 21.116 24.375 19.7187V7.82662C24.375 6.4293 23.2741 5.27832 21.9375 5.27832H4.0625ZM4.0625 6.97718H21.9375C22.3974 6.97718 22.75 7.34584 22.75 7.82662V9.52548H4.0625V11.2243H22.75V19.7187C22.75 20.1994 22.3974 20.5681 21.9375 20.5681H4.0625C3.60263 20.5681 3.25 20.1994 3.25 19.7187V7.82662C3.25 7.34584 3.60263 6.97718 4.0625 6.97718Z" fill="black" fill-opacity="0.5"/>
<g clip-path="url(#clip0_11_298)">
<path d="M8.5417 14.6746C8.4158 14.6267 8.28272 14.6026 8.14872 14.6035C7.71539 14.6035 7.40935 14.8318 7.40718 15.1594C7.40447 15.4 7.62466 15.5357 7.79122 15.6161C7.96212 15.6987 8.01927 15.7508 8.01872 15.8247C8.01764 15.9372 7.88222 15.9881 7.75629 15.9881C7.58322 15.9881 7.4887 15.9629 7.34327 15.8998L7.28937 15.8734L7.22789 16.2506C7.33324 16.2965 7.5231 16.3358 7.71918 16.3392C8.17987 16.3392 8.48104 16.1124 8.48456 15.7639C8.48835 15.5716 8.36918 15.4264 8.11839 15.3063C7.96591 15.2284 7.87139 15.1763 7.87139 15.0973C7.87139 15.0274 7.95237 14.9527 8.12164 14.9527C8.2343 14.9498 8.34625 14.9719 8.45016 15.0175L8.49079 15.0365L8.55227 14.6721L8.5417 14.6746ZM9.6662 14.6341H9.32766C9.22231 14.6341 9.14295 14.6644 9.09691 14.7737L8.44583 16.3157H8.90652L8.9986 16.0629L9.56085 16.0634C9.57412 16.1226 9.61475 16.3157 9.61475 16.3157H10.021L9.6662 14.6341ZM6.78399 14.62H7.22302L6.94839 16.3024H6.50991L6.78399 14.6194V14.62ZM5.66952 15.5473L5.71502 15.7809L6.14402 14.6341H6.60904L5.91814 16.3134H5.4542L5.07504 14.8915C5.0689 14.8681 5.05447 14.8479 5.03468 14.8352C4.89802 14.7613 4.75322 14.7053 4.60352 14.6684L4.60947 14.633H5.31608C5.41195 14.637 5.48914 14.6684 5.51487 14.7754L5.66924 15.5481L5.66952 15.5473ZM9.12454 15.7188L9.2995 15.2483C9.29733 15.2534 9.33552 15.1511 9.35772 15.088L9.38779 15.2333L9.48935 15.7186H9.12427L9.12454 15.7188Z" fill="#2E3EB6"/>
</g>
<g clip-path="url(#clip1_11_298)">
<path d="M16.1816 13.5002H17.9374V17.7432H16.1816V13.5002Z" fill="#FF5F00"/>
<path d="M16.2929 15.6218C16.2929 14.7597 16.5939 13.9951 17.0565 13.5003C16.7165 13.1405 16.2873 12.9231 15.8191 12.9231C14.7099 12.9231 13.8125 14.13 13.8125 15.6218C13.8125 17.1135 14.7099 18.3205 15.8191 18.3205C16.2873 18.3205 16.7165 18.1031 17.0565 17.7432C16.5939 17.256 16.2929 16.4838 16.2929 15.6218Z" fill="#EB001B"/>
<path d="M20.3065 15.6218C20.3065 17.1135 19.4091 18.3205 18.2999 18.3205C17.8317 18.3205 17.4025 18.1031 17.0625 17.7432C17.5307 17.2485 17.8261 16.4838 17.8261 15.6218C17.8261 14.7597 17.5251 13.9951 17.0625 13.5003C17.4025 13.1405 17.8317 12.9231 18.2999 12.9231C19.4091 12.9231 20.3065 14.1375 20.3065 15.6218Z" fill="#F79E1B"/>
</g>
<defs>
<clipPath id="clip0_11_298">
<rect width="6.5" height="6.79545" fill="white" transform="translate(4.0625 12.0737)"/>
</clipPath>
<clipPath id="clip1_11_298">
<rect width="6.5" height="6.79545" fill="white" transform="translate(13.8125 12.9231)"/>
</clipPath>
</defs>
</svg>
