<svg width="53" height="33" viewBox="0 0 53 33" fill="none" xmlns="http://www.w3.org/2000/svg">
<path d="M4.74792 0.175857C4.41371 0.17625 4.07951 0.178376 3.74533 0.182232C3.41408 0.192857 3.07621 0.209857 2.74717 0.267232C2.24989 0.342851 1.77838 0.531001 1.37143 0.816203C0.964474 1.1014 0.633705 1.47551 0.406333 1.90773C0.25175 2.20098 0.154583 2.49848 0.0971667 2.82148C0.0353333 3.13598 0.0154583 3.45898 0.00883333 3.77773C0.00431246 3.92574 0.00136786 4.07379 0 4.22186L0 28.7805C0 28.9292 0.00441667 29.0737 0.006625 29.2204C0.0154583 29.5391 0.0353333 29.8642 0.0949583 30.1809C0.154583 30.4996 0.253958 30.7992 0.408542 31.0925C0.713059 31.6694 1.20027 32.1382 1.79979 32.4312C2.10454 32.58 2.41371 32.6756 2.74937 32.733C3.07621 32.7904 3.41188 32.8095 3.74312 32.818L4.20246 32.8244H48.7975L49.2547 32.818C49.5859 32.8095 49.9238 32.7904 50.2528 32.733C50.5841 32.6756 50.8955 32.5821 51.198 32.4334C51.799 32.1406 52.2872 31.6708 52.5915 31.0925C52.746 30.7992 52.8454 30.5017 52.9028 30.1787C52.9625 29.8642 52.9823 29.5412 52.9912 29.2225C52.9956 29.0737 52.9978 28.9292 52.9978 28.7805L53 28.2577V4.21973C53 4.07098 52.9956 3.92648 52.9912 3.77986C52.987 3.458 52.9575 3.13691 52.9028 2.81936C52.7972 2.17943 52.484 1.58802 52.008 1.12966C51.5321 0.671294 50.9178 0.369438 50.2528 0.267232C49.9228 0.214868 49.5891 0.186455 49.2547 0.182232C48.9213 0.173151 48.5878 0.171025 48.2543 0.175857H4.74792ZM4.74792 1.26386H48.7865C48.9322 1.26386 49.0758 1.26811 49.2215 1.27023C49.4755 1.27873 49.7736 1.29148 50.0497 1.33823C50.2904 1.38073 50.4913 1.44448 50.6835 1.53798C51.0708 1.7272 51.3856 2.0301 51.5822 2.40286C51.6834 2.59549 51.7534 2.80187 51.7898 3.01486C51.8384 3.27623 51.8517 3.56311 51.8583 3.80961C51.8627 3.94773 51.8649 4.08586 51.8649 4.22823V28.7762C51.8649 28.9144 51.8649 29.0525 51.8583 29.1927C51.8517 29.4371 51.8384 29.724 51.7876 29.9896C51.7398 30.3023 51.6146 30.5993 51.4224 30.8556C51.2302 31.112 50.9768 31.32 50.6835 31.4622C50.4846 31.559 50.2717 31.6264 50.0519 31.662C49.7794 31.7037 49.5041 31.7264 49.2282 31.73L48.7865 31.7364H4.20908C4.06333 31.7364 3.91537 31.7321 3.77625 31.73C3.49887 31.7265 3.22211 31.7038 2.94812 31.662C2.70742 31.6195 2.50646 31.5557 2.31212 31.4622C1.92474 31.2737 1.61047 30.9706 1.41554 30.5974C1.31464 30.4046 1.24465 30.1983 1.20796 29.9854C1.1641 29.7232 1.14048 29.4583 1.13729 29.1927C1.13433 29.0532 1.13286 28.9137 1.13287 28.7741V4.22611C1.13287 4.08798 1.13287 3.94773 1.13729 3.80748C1.14612 3.56523 1.15937 3.28048 1.20796 3.01061C1.25212 2.78111 1.31837 2.58773 1.41554 2.40073C1.61231 2.02859 1.92711 1.72641 2.31433 1.53798C2.51425 1.4418 2.72781 1.37449 2.94812 1.33823C3.22417 1.29148 3.52229 1.27661 3.77625 1.27023C3.91979 1.26598 4.06554 1.26598 4.20908 1.26386H4.74792ZM15.1492 9.12636C14.4867 9.16036 13.674 9.54923 13.2058 10.0954C12.784 10.5629 12.4108 11.3279 12.508 12.0461C13.2544 12.1099 13.9986 11.687 14.469 11.1579C14.9217 10.6096 15.2309 9.87648 15.1492 9.12848V9.12636ZM20.023 10.0189V21.6915H21.9045V17.7029H24.5103C26.8909 17.7029 28.5626 16.1325 28.5626 13.8524C28.5626 11.5786 26.924 10.0167 24.5699 10.0167L20.023 10.0189ZM21.9045 11.5467H24.073C25.705 11.5467 26.6369 12.3882 26.6369 13.8609C26.6369 15.3314 25.705 16.1814 24.0664 16.1814H21.9045V11.5467ZM14.9394 12.1842C13.9456 12.2055 13.1065 12.7792 12.6206 12.7792C12.1017 12.7792 11.3111 12.2182 10.4543 12.2331C9.89689 12.2465 9.35288 12.4001 8.87634 12.6786C8.3998 12.957 8.00734 13.3507 7.738 13.8205C6.57421 15.75 7.43104 18.6124 8.56392 20.1849C9.11379 20.9626 9.77629 21.819 10.6486 21.7871C11.4723 21.7574 11.7969 21.2729 12.7973 21.2729C13.7999 21.2729 14.0914 21.7871 14.9615 21.7722C15.8669 21.7574 16.4344 20.9945 16.9821 20.2146C17.6137 19.3285 17.872 18.4721 17.8875 18.4275C17.872 18.4105 16.1429 17.773 16.1275 15.8584C16.1098 14.2561 17.4856 13.4932 17.5496 13.4465C16.7723 12.3415 15.5621 12.2182 15.1425 12.1864C15.0749 12.1823 15.0071 12.183 14.9394 12.1842ZM33.0565 13.0279C30.8703 13.0279 29.51 14.1605 29.4084 15.6969H31.1242C31.2832 14.9361 31.9391 14.4516 32.9903 14.4516C34.0989 14.4516 34.7636 15.0169 34.7636 15.9625V16.6191L32.341 16.7551C30.2409 16.8699 29.055 17.7836 29.055 19.2711C29.055 20.8011 30.2652 21.836 31.9965 21.836C33.1581 21.836 34.2755 21.2389 34.7879 20.2911H34.8298V21.6915H36.57V15.8265C36.57 14.1201 35.2008 13.0279 33.0565 13.0279ZM37.3407 13.1809L40.534 21.7C40.534 21.7064 40.3727 22.21 40.3727 22.2249C40.0967 23.0961 39.644 23.4382 38.8026 23.4382C38.6502 23.4382 38.3477 23.4382 38.213 23.4064V24.8216C38.3455 24.845 38.8026 24.862 38.9528 24.862C40.7857 24.862 41.6602 24.199 42.4155 22.1356L45.728 13.1809H43.8111L41.5763 20.1062H41.5432L39.3061 13.1787L37.3407 13.1809ZM34.7636 17.8325V18.504C34.7636 19.6111 33.7698 20.4526 32.5023 20.4526C31.5262 20.4526 30.888 19.9681 30.888 19.2222C30.888 18.4955 31.5019 18.0322 32.5862 17.9621L34.7636 17.8325Z" fill="black"/>
</svg>
